<svg xmlns="http://www.w3.org/2000/svg" xml:space="preserve" width="500" height="500">
    <path d="M455.381 445.862c-11.46-6.495-32.99-19.616-48.437-34.515-5.98-5.768-8.768-10.75-8.29-14.816.899-7.626 13.467-15.116 25.62-22.36l1.975-1.18c11.562-6.91 13.73-15.601 13.508-21.676-.461-12.814-12.478-27.014-30.611-36.179-14.617-7.386-59.095-23.829-93.83-36.32-18.578-6.68-34.47-19.49-44.762-36.075L133.18 21.312c-4.097-6.612-13.178-9.388-20.393-6.184l-12.66 5.625c-4.102 1.823-7.266 5.279-8.671 9.484a15.65 15.65 0 0 0 1.257 12.693l76.237 133.501c9.633 16.87 9.167 37.557-1.223 53.985l-1.48 2.33c-2.252 3.562-5.974 5.605-10.207 5.605-4.04 0-9.132-2.004-11.322-7.627L83.537 73.701A90 90 0 0 0 69.82 49.975c-3.135-3.897-7.829-6.134-12.887-6.134a16.6 16.6 0 0 0-10.424 3.682c-9.36 7.583-13.445 19.496-10.662 31.093l40.118 167.332c19.192 80.056 77.967 143.63 157.22 170.06q104.158 34.741 208.315 69.479a16 16 0 0 0 5.041.82c6.732 0 12.7-4.211 14.868-10.474l2.583-7.487c2.94-8.528-.678-17.983-8.61-22.484z" style="fill:none;stroke:#000;stroke-width:20;stroke-linejoin:round;stroke-dasharray:none;stroke-opacity:1"/>
    <path d="M455.381 445.862c-11.46-6.495-32.99-19.616-48.437-34.515-5.98-5.768-8.768-10.75-8.29-14.816.899-7.626 13.467-15.116 25.62-22.36l1.975-1.18c11.562-6.91 13.73-15.601 13.508-21.676-.461-12.814-12.478-27.014-30.611-36.179-14.617-7.386-59.095-23.829-93.83-36.32-18.578-6.68-34.47-19.49-44.762-36.075L133.18 21.312c-4.097-6.612-13.178-9.388-20.393-6.184l-12.66 5.625c-4.102 1.823-7.266 5.279-8.671 9.484a15.65 15.65 0 0 0 1.257 12.693l76.237 133.501c9.633 16.87 9.167 37.557-1.223 53.985l-1.48 2.33c-2.252 3.562-5.974 5.605-10.207 5.605-4.04 0-9.132-2.004-11.322-7.627L83.537 73.701A90 90 0 0 0 69.82 49.975c-3.135-3.897-7.829-6.134-12.887-6.134a16.6 16.6 0 0 0-10.424 3.682c-9.36 7.583-13.445 19.496-10.662 31.093l40.118 167.332c19.192 80.056 77.967 143.63 157.22 170.06q104.158 34.741 208.315 69.479a16 16 0 0 0 5.041.82c6.732 0 12.7-4.211 14.868-10.474l2.583-7.487c2.94-8.528-.678-17.983-8.61-22.484z" style="fill:none;stroke:#fff;stroke-width:5;stroke-linejoin:round;stroke-dasharray:none;stroke-opacity:1"/>
</svg>
