<svg xmlns="http://www.w3.org/2000/svg" xml:space="preserve" width="500" height="500">
    <path d="M107.452 412.914c7.705-17.51 22.763-52.533 30.82-70.745 3.631-8.21 11.418-13.396 17.861-12.257 11.908 2.101 18.282 12.896 14.71 29.418-2.802 12.959-8.3 34.693-10.507 45.179-2.801 13.307 2.696 21.588 12.608 23.114 9.105 1.402 18.81-1.42 21.364-14.358a21000 21000 0 0 1 18.912-94.209c1.643-8.01 2.099-11.282 9.806-21.364 9.105-11.908 105.533-131.16 117.323-146.392 8.405-10.858 8.405-22.064-.702-28.719-16.405-11.986-37.823-4.553-46.928 7.355-11.663 15.251-67.942 85.454-83.002 104.715-11.436 14.625-35.723 9.456-38.524-11.557-1.599-11.986-4.902-40.625-5.953-48.682-1.05-8.056 2.101-12.608 7.706-18.212 8.783-8.783 21.364-20.313 25.915-23.114 4.552-2.801 7.004-5.604 6.304-9.456-.534-2.942-3.345-5.081-8.756-5.604-10.857-1.051-11.557-9.456-5.604-16.81 5.953-7.356 10.292-11.106 23.814-15.41 15.409-4.902 25.478-5.846 39.574-1.401 8.054 2.538 10.164 3.215 18.561 5.69 8.012 2.364 14.804-1.904 18.256-10.902 4.335-11.294 5.21-13.7 10.114-25.61 7.642-18.56 23.774-50.096 64.09-33.972 40.276 16.11 33.144 52.165 25.61 71.007-2.8 7.004-6.076 14.192-9.428 21.656-24.854 55.307-120.418 266.834-158.996 352.698-7.167 15.955-16.621 25.405-39.299 15.88-17.51-7.355-47.531-20.537-65.84-28.72-16.464-7.348-16.37-24.305-9.81-39.218z" style="fill:none;stroke:#000;stroke-width:20;stroke-linejoin:round;stroke-dasharray:none;stroke-opacity:1"/>
    <path d="M107.452 412.914c7.705-17.51 22.763-52.533 30.82-70.745 3.631-8.21 11.418-13.396 17.861-12.257 11.908 2.101 18.282 12.896 14.71 29.418-2.802 12.959-8.3 34.693-10.507 45.179-2.801 13.307 2.696 21.588 12.608 23.114 9.105 1.402 18.81-1.42 21.364-14.358a21000 21000 0 0 1 18.912-94.209c1.643-8.01 2.099-11.282 9.806-21.364 9.105-11.908 105.533-131.16 117.323-146.392 8.405-10.858 8.405-22.064-.702-28.719-16.405-11.986-37.823-4.553-46.928 7.355-11.663 15.251-67.942 85.454-83.002 104.715-11.436 14.625-35.723 9.456-38.524-11.557-1.599-11.986-4.902-40.625-5.953-48.682-1.05-8.056 2.101-12.608 7.706-18.212 8.783-8.783 21.364-20.313 25.915-23.114 4.552-2.801 7.004-5.604 6.304-9.456-.534-2.942-3.345-5.081-8.756-5.604-10.857-1.051-11.557-9.456-5.604-16.81 5.953-7.356 10.292-11.106 23.814-15.41 15.409-4.902 25.478-5.846 39.574-1.401 8.054 2.538 10.164 3.215 18.561 5.69 8.012 2.364 14.804-1.904 18.256-10.902 4.335-11.294 5.21-13.7 10.114-25.61 7.642-18.56 23.774-50.096 64.09-33.972 40.276 16.11 33.144 52.165 25.61 71.007-2.8 7.004-6.076 14.192-9.428 21.656-24.854 55.307-120.418 266.834-158.996 352.698-7.167 15.955-16.621 25.405-39.299 15.88-17.51-7.355-47.531-20.537-65.84-28.72-16.464-7.348-16.37-24.305-9.81-39.218z" style="fill:none;stroke:#fff;stroke-width:5;stroke-linejoin:round;stroke-dasharray:none;stroke-opacity:1"/>
</svg>
