<svg xmlns="http://www.w3.org/2000/svg" xml:space="preserve" width="500" height="500">
    <path d="M135.775 93.019c-.061-5.185 5.944-5.518 9.211-5.518 1.16 0 6.021.23 14.424 0 7.211-.197 14.824-7.881 14.223-14.384-.709-7.662-.976-15.566-1.202-21.674-.401-10.838 9.215-24.04 19.03-29.36 9.424-5.107 11.84-6.065 19.232-9.458 12.019-5.517 25.641 7.094 25.44 21.872-.144 10.64.201 22.069 0 30.148-.176 7.1-2.264 13.515-8.213 17.93-11.418 8.473-18.125 13.541-37.26 27.192-7.841 5.595-9.615 14.975-5.81 21.675 6.342 11.16 19.373 14.762 28.847 9.26 5.888-3.418 6.704-4.003 11.82-7.487 18.229-12.413 25.378 13.651 25.44 22.463.2 27.98 1.002 142.068 1.403 160.984.277 13.102 3.112 20.651 17.228 18.916 9.615-1.183 13.221-1.577 20.032-2.365 7.962-.92 12.044 11.224 3.606 14.187-1.402.494-3.46 1.116-5.91 1.873-6.712 2.07-7.045 6.751-6.512 9.557 1.202 6.306 5.91 7.488 13.222 7.094 12.008-.647 36.058-2.168 44.07-2.759 8.84-.652 17.43-.82 20.835 5.32 4.807 8.67 5.581 16.747 5.208 21.28-2.003 24.237-6.878 48.407-10.818 60.099-.8 2.374-7.612 33.891-42.468 36.125-30.707 1.967-66.508 2.826-90.013 2.626-30.717-.262-80.397-26.535-80.93-88.8-.332-38.913-3.377-242.496-4.135-306.796z" style="fill:none;stroke:#000;stroke-width:20;stroke-linejoin:round;stroke-dasharray:none;stroke-opacity:1"/>
    <path d="M135.775 93.019c-.061-5.185 5.944-5.518 9.211-5.518 1.16 0 6.021.23 14.424 0 7.211-.197 14.824-7.881 14.223-14.384-.709-7.662-.976-15.566-1.202-21.674-.401-10.838 9.215-24.04 19.03-29.36 9.424-5.107 11.84-6.065 19.232-9.458 12.019-5.517 25.641 7.094 25.44 21.872-.144 10.64.201 22.069 0 30.148-.176 7.1-2.264 13.515-8.213 17.93-11.418 8.473-18.125 13.541-37.26 27.192-7.841 5.595-9.615 14.975-5.81 21.675 6.342 11.16 19.373 14.762 28.847 9.26 5.888-3.418 6.704-4.003 11.82-7.487 18.229-12.413 25.378 13.651 25.44 22.463.2 27.98 1.002 142.068 1.403 160.984.277 13.102 3.112 20.651 17.228 18.916 9.615-1.183 13.221-1.577 20.032-2.365 7.962-.92 12.044 11.224 3.606 14.187-1.402.494-3.46 1.116-5.91 1.873-6.712 2.07-7.045 6.751-6.512 9.557 1.202 6.306 5.91 7.488 13.222 7.094 12.008-.647 36.058-2.168 44.07-2.759 8.84-.652 17.43-.82 20.835 5.32 4.807 8.67 5.581 16.747 5.208 21.28-2.003 24.237-6.878 48.407-10.818 60.099-.8 2.374-7.612 33.891-42.468 36.125-30.707 1.967-66.508 2.826-90.013 2.626-30.717-.262-80.397-26.535-80.93-88.8-.332-38.913-3.377-242.496-4.135-306.796z" style="fill:none;stroke:#fff;stroke-width:5;stroke-linejoin:round;stroke-dasharray:none;stroke-opacity:1"/>
</svg>
