<svg xmlns="http://www.w3.org/2000/svg" xml:space="preserve" width="500" height="500">
    <path d="M210.034 15c19.135 0 72.772.29 83.209.29s15.941 3.276 17.105 10.716c1.45 9.268-.58 12.454-9.277 18.536-6.752 4.722-9.749 6.238-15.946 10.427-9.858 6.661-15.895 18.823-15.656 29.252.29 12.744 2.83 50.673 3.479 64.298.87 18.246 21.529 43.726 46.678 47.209 29.283 4.055 117.729 16.094 127.858 17.667 13.046 2.028 27.083 12.123 32.471 27.804 6.669 19.406-.93 43.011-15.366 55.03-13.916 11.585-199.18 164.219-223.533 183.913-6.868 5.554-16.236 7.241-23.194.29s-5.017-14.959-1.74-21.722c8.698-17.957 27.833-55.319 38.56-75.883 6.235-11.948 3.64-34.009-5.508-45.76-10.147-13.034-38.27-49.817-50.447-64.877-11.381-14.079-24.064-21.433-46.968-17.957-15.41 2.338-33.052 19.984-39.72 40.837s-17.975 53.002-24.644 72.407c-5.3 15.425-22.906 18.356-32.472 11.006-11.307-8.689-22.904-17.667-31.312-24.04-8.407-6.37-7.538-17.377-1.45-30.7 5.407-11.828 33.723-67.81 44.826-89.258 1.4-2.709 3.725-8.177 8.521-6.101 2.176.94 7.684 3.404 12.613 5.36 4.298 1.705 8.844.097 11.67-3.043 6.45-7.169 16.077-17.39 19.57-21.36 4.205-4.78 11.702-4.02 14.13-3.858 13.181.878 26.657 1.765 39.145 2.989 5.55.542 13.545 3.59 18.555 9.847 11.597 14.481 74.801 96.446 85.238 109.48 6.66 8.315 16.816 7.82 22.905 4.923 6.088-2.896 12.712-10.721 7.248-23.46-6.958-16.22-109.592-258.638-113.941-269.643C188.29 28.613 195.814 15 210.034 15z" style="fill:none;stroke:#000;stroke-width:20;stroke-linejoin:round;stroke-dasharray:none;stroke-opacity:1"/>
    <path d="M210.034 15c19.135 0 72.772.29 83.209.29s15.941 3.276 17.105 10.716c1.45 9.268-.58 12.454-9.277 18.536-6.752 4.722-9.749 6.238-15.946 10.427-9.858 6.661-15.895 18.823-15.656 29.252.29 12.744 2.83 50.673 3.479 64.298.87 18.246 21.529 43.726 46.678 47.209 29.283 4.055 117.729 16.094 127.858 17.667 13.046 2.028 27.083 12.123 32.471 27.804 6.669 19.406-.93 43.011-15.366 55.03-13.916 11.585-199.18 164.219-223.533 183.913-6.868 5.554-16.236 7.241-23.194.29s-5.017-14.959-1.74-21.722c8.698-17.957 27.833-55.319 38.56-75.883 6.235-11.948 3.64-34.009-5.508-45.76-10.147-13.034-38.27-49.817-50.447-64.877-11.381-14.079-24.064-21.433-46.968-17.957-15.41 2.338-33.052 19.984-39.72 40.837s-17.975 53.002-24.644 72.407c-5.3 15.425-22.906 18.356-32.472 11.006-11.307-8.689-22.904-17.667-31.312-24.04-8.407-6.37-7.538-17.377-1.45-30.7 5.407-11.828 33.723-67.81 44.826-89.258 1.4-2.709 3.725-8.177 8.521-6.101 2.176.94 7.684 3.404 12.613 5.36 4.298 1.705 8.844.097 11.67-3.043 6.45-7.169 16.077-17.39 19.57-21.36 4.205-4.78 11.702-4.02 14.13-3.858 13.181.878 26.657 1.765 39.145 2.989 5.55.542 13.545 3.59 18.555 9.847 11.597 14.481 74.801 96.446 85.238 109.48 6.66 8.315 16.816 7.82 22.905 4.923 6.088-2.896 12.712-10.721 7.248-23.46-6.958-16.22-109.592-258.638-113.941-269.643C188.29 28.613 195.814 15 210.034 15z" style="fill:none;stroke:#fff;stroke-width:5;stroke-linejoin:round;stroke-dasharray:none;stroke-opacity:1"/>
</svg>
