<svg xmlns="http://www.w3.org/2000/svg" xml:space="preserve" width="500" height="500">
    <path d="M78.05 377.813c12.738-3.772 333.97-98.235 346.898-101.693 21.996-5.885 41.198-30.459 39.992-55.223-1.331-27.386-10.665-38.702-22.218-48.66-9.125-7.866-37.541-32.506-45.768-38.702-10.22-7.695-30.908-9.578-40.88 5.66-6.222 9.505-3.664 15.865 2.444 21.048 9.332 7.922 34.27 27.703 39.992 32.59 6.889 5.885 4.667 22.405-8.442 20.822-13.548-1.638-34.192-4.479-45.77-6.112-14.442-2.036-26.217-14.711-29.327-25.348-2.869-9.806-12.443-42.32-15.33-51.826-2.295-7.552-9.73-9.824-14.664-8.148-5.998 2.038-9.999 3.621-13.998 5.433-4 1.81-10 5.883-14.22 14.485-6.045 12.312-16.886 34.626-23.995 48.66-7.306 14.419-15.997 19.69-27.995 21.047-16.414 1.858-94.205 11.769-105.758 13.58-9.266 1.451-14.885 13.351-7.554 19.917 7.567 6.773 15.775 14.03 22.885 20.595 6.586 6.078 15.553 8.147 25.329 3.395 15.334-7.456 40.658-20.821 49.1-25.575 6.959-3.917 17.535-7.04 25.995-6.337 10.888.906 58.205 5.299 69.765 6.11 6.442.453 9.65 12.383-.223 15.164-10.442 2.942-169.455 49.128-180.93 52.581-13.035 3.924-22.515.453-28.292-9.958-3.724-6.712-10.22-18.86-14.07-25.197-4.184-6.885-13.23-5.683-15.109 2.415-1.926 8.297-7.85 31.986-10.22 41.944-2.319 9.738 1.209 14.739 5.61 20.71 10.72 14.54 17.052 23.14 21.052 28.856 2.126 3.037 6.027 10.631 15.7 7.767z" style="fill:none;stroke:#000;stroke-width:20;stroke-linejoin:round;stroke-dasharray:none;stroke-opacity:1"/>
    <path d="M78.05 377.813c12.738-3.772 333.97-98.235 346.898-101.693 21.996-5.885 41.198-30.459 39.992-55.223-1.331-27.386-10.665-38.702-22.218-48.66-9.125-7.866-37.541-32.506-45.768-38.702-10.22-7.695-30.908-9.578-40.88 5.66-6.222 9.505-3.664 15.865 2.444 21.048 9.332 7.922 34.27 27.703 39.992 32.59 6.889 5.885 4.667 22.405-8.442 20.822-13.548-1.638-34.192-4.479-45.77-6.112-14.442-2.036-26.217-14.711-29.327-25.348-2.869-9.806-12.443-42.32-15.33-51.826-2.295-7.552-9.73-9.824-14.664-8.148-5.998 2.038-9.999 3.621-13.998 5.433-4 1.81-10 5.883-14.22 14.485-6.045 12.312-16.886 34.626-23.995 48.66-7.306 14.419-15.997 19.69-27.995 21.047-16.414 1.858-94.205 11.769-105.758 13.58-9.266 1.451-14.885 13.351-7.554 19.917 7.567 6.773 15.775 14.03 22.885 20.595 6.586 6.078 15.553 8.147 25.329 3.395 15.334-7.456 40.658-20.821 49.1-25.575 6.959-3.917 17.535-7.04 25.995-6.337 10.888.906 58.205 5.299 69.765 6.11 6.442.453 9.65 12.383-.223 15.164-10.442 2.942-169.455 49.128-180.93 52.581-13.035 3.924-22.515.453-28.292-9.958-3.724-6.712-10.22-18.86-14.07-25.197-4.184-6.885-13.23-5.683-15.109 2.415-1.926 8.297-7.85 31.986-10.22 41.944-2.319 9.738 1.209 14.739 5.61 20.71 10.72 14.54 17.052 23.14 21.052 28.856 2.126 3.037 6.027 10.631 15.7 7.767z" style="fill:none;stroke:#fff;stroke-width:5;stroke-linejoin:round;stroke-dasharray:none;stroke-opacity:1"/>
</svg>
